  0
SECTION
  2
HEADER
  9
$ACADVER
  1
AC1009
  9
$EXTMIN
 10
0.0
 20
0.0
 30
0.0
  9
$EXTMAX
 10
1000.0
 20
1000.0
 30
0.0
  9
$FILLMODE
 70
 0
  9
$SPLFRAME
 70
 1
  0
ENDSEC
  0
SECTION
  2
TABLES
  0
TABLE
  2
LAYER
 70
1
  0
LAYER
  2
0
 70
     0
 62
     7
  6
CONTINUOUS
  0
ENDTAB
  0
ENDSEC
  0
SECTION
  2
ENTITIES
  0
POLYLINE
  8
0
 62
     0
 66
     1
 10
0
 20
0
 30
0.0
 70
     1
 40
0
 41
0
  0
VERTEX
  8
0
 10
2.05539
 20
1.32123
 30
0.0
 40
0
 41
0
  0
VERTEX
  8
0
 10
2.09196
 20
1.3055
 30
0.0
 40
0
 41
0
  0
VERTEX
  8
0
 10
2.22814
 20
1.25624
 30
0.0
 40
0
 41
0
  0
VERTEX
  8
0
 10
2.36849
 20
1.21631
 30
0.0
 40
0
 41
0
  0
VERTEX
  8
0
 10
2.45888
 20
1.19623
 30
0.0
 40
0
 41
0
  0
VERTEX
  8
0
 10
2.7646
 20
1.19623
 30
0.0
 40
0
 41
0
  0
VERTEX
  8
0
 10
2.7646
 20
1.32123
 30
0.0
 40
0
 41
0
  0
VERTEX
  8
0
 10
2.05539
 20
1.32123
 30
0.0
 40
0
 41
0
  0
SEQEND
 8
0
  0
POLYLINE
  8
0
 62
     0
 66
     1
 10
0
 20
0
 30
0.0
 70
     1
 40
0
 41
0
  0
VERTEX
  8
0
 10
2.98606
 20
1.35612
 30
0.0
 40
0
 41
0
  0
VERTEX
  8
0
 10
2.98606
 20
1.22309
 30
0.0
 40
0
 41
0
  0
VERTEX
  8
0
 10
3.13601
 20
1.16851
 30
0.0
 40
0
 41
0
  0
VERTEX
  8
0
 10
3.18533
 20
1.17453
 30
0.0
 40
0
 41
0
  0
VERTEX
  8
0
 10
3.28276
 20
1.19119
 30
0.0
 40
0
 41
0
  0
VERTEX
  8
0
 10
3.37864
 20
1.21218
 30
0.0
 40
0
 41
0
  0
VERTEX
  8
0
 10
3.38021
 20
1.21267
 30
0.0
 40
0
 41
0
  0
VERTEX
  8
0
 10
2.98606
 20
1.35612
 30
0.0
 40
0
 41
0
  0
SEQEND
 8
0
  0
POLYLINE
  8
0
 62
     0
 66
     1
 10
0
 20
0
 30
0.0
 70
     1
 40
0
 41
0
  0
VERTEX
  8
0
 10
1.61947
 20
1.57124
 30
0.0
 40
0
 41
0
  0
VERTEX
  8
0
 10
1.67296
 20
1.53211
 30
0.0
 40
0
 41
0
  0
VERTEX
  8
0
 10
1.75206
 20
1.47949
 30
0.0
 40
0
 41
0
  0
VERTEX
  8
0
 10
1.80746
 20
1.44624
 30
0.0
 40
0
 41
0
  0
VERTEX
  8
0
 10
2.7646
 20
1.44624
 30
0.0
 40
0
 41
0
  0
VERTEX
  8
0
 10
2.7646
 20
1.57124
 30
0.0
 40
0
 41
0
  0
VERTEX
  8
0
 10
1.61947
 20
1.57124
 30
0.0
 40
0
 41
0
  0
SEQEND
 8
0
  0
POLYLINE
  8
0
 62
     0
 66
     1
 10
0
 20
0
 30
0.0
 70
     1
 40
0
 41
0
  0
VERTEX
  8
0
 10
2.98606
 20
1.62218
 30
0.0
 40
0
 41
0
  0
VERTEX
  8
0
 10
2.98606
 20
1.48915
 30
0.0
 40
0
 41
0
  0
VERTEX
  8
0
 10
3.58051
 20
1.27279
 30
0.0
 40
0
 41
0
  0
VERTEX
  8
0
 10
3.65565
 20
1.30062
 30
0.0
 40
0
 41
0
  0
VERTEX
  8
0
 10
3.74408
 20
1.33822
 30
0.0
 40
0
 41
0
  0
VERTEX
  8
0
 10
3.75364
 20
1.34277
 30
0.0
 40
0
 41
0
  0
VERTEX
  8
0
 10
2.98606
 20
1.62218
 30
0.0
 40
0
 41
0
  0
SEQEND
 8
0
  0
POLYLINE
  8
0
 62
     0
 66
     1
 10
0
 20
0
 30
0.0
 70
     1
 40
0
 41
0
  0
VERTEX
  8
0
 10
1.33984
 20
1.82124
 30
0.0
 40
0
 41
0
  0
VERTEX
  8
0
 10
1.38325
 20
1.77556
 30
0.0
 40
0
 41
0
  0
VERTEX
  8
0
 10
1.45144
 20
1.7099
 30
0.0
 40
0
 41
0
  0
VERTEX
  8
0
 10
1.46701
 20
1.69624
 30
0.0
 40
0
 41
0
  0
VERTEX
  8
0
 10
2.7646
 20
1.69624
 30
0.0
 40
0
 41
0
  0
VERTEX
  8
0
 10
2.7646
 20
1.82124
 30
0.0
 40
0
 41
0
  0
VERTEX
  8
0
 10
1.33984
 20
1.82124
 30
0.0
 40
0
 41
0
  0
SEQEND
 8
0
  0
POLYLINE
  8
0
 62
     0
 66
     1
 10
0
 20
0
 30
0.0
 70
     1
 40
0
 41
0
  0
VERTEX
  8
0
 10
2.98606
 20
1.88813
 30
0.0
 40
0
 41
0
  0
VERTEX
  8
0
 10
2.98606
 20
1.75515
 30
0.0
 40
0
 41
0
  0
VERTEX
  8
0
 10
3.90614
 20
1.42031
 30
0.0
 40
0
 41
0
  0
VERTEX
  8
0
 10
3.91444
 20
1.42469
 30
0.0
 40
0
 41
0
  0
VERTEX
  8
0
 10
3.99615
 20
1.47353
 30
0.0
 40
0
 41
0
  0
VERTEX
  8
0
 10
4.04204
 20
1.50379
 30
0.0
 40
0
 41
0
  0
VERTEX
  8
0
 10
2.98606
 20
1.88813
 30
0.0
 40
0
 41
0
  0
SEQEND
 8
0
  0
POLYLINE
  8
0
 62
     0
 66
     1
 10
0
 20
0
 30
0.0
 70
     1
 40
0
 41
0
  0
VERTEX
  8
0
 10
1.13856
 20
2.07124
 30
0.0
 40
0
 41
0
  0
VERTEX
  8
0
 10
1.14149
 20
2.06679
 30
0.0
 40
0
 41
0
  0
VERTEX
  8
0
 10
1.19705
 20
1.98986
 30
0.0
 40
0
 41
0
  0
VERTEX
  8
0
 10
1.23166
 20
1.94624
 30
0.0
 40
0
 41
0
  0
VERTEX
  8
0
 10
2.7646
 20
1.94624
 30
0.0
 40
0
 41
0
  0
VERTEX
  8
0
 10
2.7646
 20
2.07124
 30
0.0
 40
0
 41
0
  0
VERTEX
  8
0
 10
1.13856
 20
2.07124
 30
0.0
 40
0
 41
0
  0
SEQEND
 8
0
  0
POLYLINE
  8
0
 62
     0
 66
     1
 10
0
 20
0
 30
0.0
 70
     1
 40
0
 41
0
  0
VERTEX
  8
0
 10
2.98606
 20
2.15419
 30
0.0
 40
0
 41
0
  0
VERTEX
  8
0
 10
2.98606
 20
2.02115
 30
0.0
 40
0
 41
0
  0
VERTEX
  8
0
 10
4.16521
 20
1.59207
 30
0.0
 40
0
 41
0
  0
VERTEX
  8
0
 10
4.22613
 20
1.64068
 30
0.0
 40
0
 41
0
  0
VERTEX
  8
0
 10
4.27636
 20
1.68457
 30
0.0
 40
0
 41
0
  0
VERTEX
  8
0
 10
2.98606
 20
2.15419
 30
0.0
 40
0
 41
0
  0
SEQEND
 8
0
  0
POLYLINE
  8
0
 62
     0
 66
     1
 10
0
 20
0
 30
0.0
 70
     1
 40
0
 41
0
  0
VERTEX
  8
0
 10
0.991644
 20
2.32124
 30
0.0
 40
0
 41
0
  0
VERTEX
  8
0
 10
0.995876
 20
2.31228
 30
0.0
 40
0
 41
0
  0
VERTEX
  8
0
 10
1.0408
 20
2.22808
 30
0.0
 40
0
 41
0
  0
VERTEX
  8
0
 10
1.05968
 20
2.19624
 30
0.0
 40
0
 41
0
  0
VERTEX
  8
0
 10
2.7646
 20
2.19624
 30
0.0
 40
0
 41
0
  0
VERTEX
  8
0
 10
2.7646
 20
2.32124
 30
0.0
 40
0
 41
0
  0
VERTEX
  8
0
 10
0.991644
 20
2.32124
 30
0.0
 40
0
 41
0
  0
SEQEND
 8
0
  0
POLYLINE
  8
0
 62
     0
 66
     1
 10
0
 20
0
 30
0.0
 70
     1
 40
0
 41
0
  0
VERTEX
  8
0
 10
2.98606
 20
2.42031
 30
0.0
 40
0
 41
0
  0
VERTEX
  8
0
 10
2.98606
 20
2.28728
 30
0.0
 40
0
 41
0
  0
VERTEX
  8
0
 10
4.37765
 20
1.78076
 30
0.0
 40
0
 41
0
  0
VERTEX
  8
0
 10
4.4311
 20
1.83664
 30
0.0
 40
0
 41
0
  0
VERTEX
  8
0
 10
4.46935
 20
1.88043
 30
0.0
 40
0
 41
0
  0
VERTEX
  8
0
 10
2.98606
 20
2.42031
 30
0.0
 40
0
 41
0
  0
SEQEND
 8
0
  0
POLYLINE
  8
0
 62
     0
 66
     1
 10
0
 20
0
 30
0.0
 70
     1
 40
0
 41
0
  0
VERTEX
  8
0
 10
0.886556
 20
2.57124
 30
0.0
 40
0
 41
0
  0
VERTEX
  8
0
 10
0.917426
 20
2.48725
 30
0.0
 40
0
 41
0
  0
VERTEX
  8
0
 10
0.934733
 20
2.44624
 30
0.0
 40
0
 41
0
  0
VERTEX
  8
0
 10
2.7646
 20
2.44624
 30
0.0
 40
0
 41
0
  0
VERTEX
  8
0
 10
2.7646
 20
2.57124
 30
0.0
 40
0
 41
0
  0
VERTEX
  8
0
 10
0.886556
 20
2.57124
 30
0.0
 40
0
 41
0
  0
SEQEND
 8
0
  0
POLYLINE
  8
0
 62
     0
 66
     1
 10
0
 20
0
 30
0.0
 70
     1
 40
0
 41
0
  0
VERTEX
  8
0
 10
2.98606
 20
2.68631
 30
0.0
 40
0
 41
0
  0
VERTEX
  8
0
 10
2.98606
 20
2.55333
 30
0.0
 40
0
 41
0
  0
VERTEX
  8
0
 10
4.55317
 20
1.98292
 30
0.0
 40
0
 41
0
  0
VERTEX
  8
0
 10
4.60818
 20
2.05865
 30
0.0
 40
0
 41
0
  0
VERTEX
  8
0
 10
4.62804
 20
2.08871
 30
0.0
 40
0
 41
0
  0
VERTEX
  8
0
 10
2.98606
 20
2.68631
 30
0.0
 40
0
 41
0
  0
SEQEND
 8
0
  0
POLYLINE
  8
0
 62
     0
 66
     1
 10
0
 20
0
 30
0.0
 70
     1
 40
0
 41
0
  0
VERTEX
  8
0
 10
0.8176
 20
2.82124
 30
0.0
 40
0
 41
0
  0
VERTEX
  8
0
 10
0.829861
 20
2.76454
 30
0.0
 40
0
 41
0
  0
VERTEX
  8
0
 10
0.847982
 20
2.69624
 30
0.0
 40
0
 41
0
  0
VERTEX
  8
0
 10
2.7646
 20
2.69624
 30
0.0
 40
0
 41
0
  0
VERTEX
  8
0
 10
2.7646
 20
2.82124
 30
0.0
 40
0
 41
0
  0
VERTEX
  8
0
 10
0.8176
 20
2.82124
 30
0.0
 40
0
 41
0
  0
SEQEND
 8
0
  0
POLYLINE
  8
0
 62
     0
 66
     1
 10
0
 20
0
 30
0.0
 70
     1
 40
0
 41
0
  0
VERTEX
  8
0
 10
2.98606
 20
2.95231
 30
0.0
 40
0
 41
0
  0
VERTEX
  8
0
 10
2.98606
 20
2.81928
 30
0.0
 40
0
 41
0
  0
VERTEX
  8
0
 10
4.69581
 20
2.19706
 30
0.0
 40
0
 41
0
  0
VERTEX
  8
0
 10
4.70931
 20
2.21961
 30
0.0
 40
0
 41
0
  0
VERTEX
  8
0
 10
4.75444
 20
2.30365
 30
0.0
 40
0
 41
0
  0
VERTEX
  8
0
 10
4.75651
 20
2.308
 30
0.0
 40
0
 41
0
  0
VERTEX
  8
0
 10
2.98606
 20
2.95231
 30
0.0
 40
0
 41
0
  0
SEQEND
 8
0
  0
POLYLINE
  8
0
 62
     0
 66
     1
 10
0
 20
0
 30
0.0
 70
     1
 40
0
 41
0
  0
VERTEX
  8
0
 10
0.780003
 20
3.07124
 30
0.0
 40
0
 41
0
  0
VERTEX
  8
0
 10
0.781033
 20
3.05692
 30
0.0
 40
0
 41
0
  0
VERTEX
  8
0
 10
0.792806
 20
2.95796
 30
0.0
 40
0
 41
0
  0
VERTEX
  8
0
 10
0.794814
 20
2.94624
 30
0.0
 40
0
 41
0
  0
VERTEX
  8
0
 10
2.7646
 20
2.94624
 30
0.0
 40
0
 41
0
  0
VERTEX
  8
0
 10
2.7646
 20
3.07124
 30
0.0
 40
0
 41
0
  0
VERTEX
  8
0
 10
0.780003
 20
3.07124
 30
0.0
 40
0
 41
0
  0
SEQEND
 8
0
  0
POLYLINE
  8
0
 62
     0
 66
     1
 10
0
 20
0
 30
0.0
 70
     1
 40
0
 41
0
  0
VERTEX
  8
0
 10
4.27599
 20
3.14794
 30
0.0
 40
0
 41
0
  0
VERTEX
  8
0
 10
4.95156
 20
2.90207
 30
0.0
 40
0
 41
0
  0
VERTEX
  8
0
 10
4.95947
 20
2.94874
 30
0.0
 40
0
 41
0
  0
VERTEX
  8
0
 10
4.96929
 20
3.02864
 30
0.0
 40
0
 41
0
  0
VERTEX
  8
0
 10
4.64144
 20
3.14794
 30
0.0
 40
0
 41
0
  0
VERTEX
  8
0
 10
4.27599
 20
3.14794
 30
0.0
 40
0
 41
0
  0
SEQEND
 8
0
  0
POLYLINE
  8
0
 62
     0
 66
     1
 10
0
 20
0
 30
0.0
 70
     1
 40
0
 41
0
  0
VERTEX
  8
0
 10
3.54503
 20
3.14794
 30
0.0
 40
0
 41
0
  0
VERTEX
  8
0
 10
4.89501
 20
2.65657
 30
0.0
 40
0
 41
0
  0
VERTEX
  8
0
 10
4.89649
 20
2.66118
 30
0.0
 40
0
 41
0
  0
VERTEX
  8
0
 10
4.92182
 20
2.75543
 30
0.0
 40
0
 41
0
  0
VERTEX
  8
0
 10
4.92681
 20
2.77806
 30
0.0
 40
0
 41
0
  0
VERTEX
  8
0
 10
3.91049
 20
3.14794
 30
0.0
 40
0
 41
0
  0
VERTEX
  8
0
 10
3.54503
 20
3.14794
 30
0.0
 40
0
 41
0
  0
SEQEND
 8
0
  0
POLYLINE
  8
0
 62
     0
 66
     1
 10
0
 20
0
 30
0.0
 70
     1
 40
0
 41
0
  0
VERTEX
  8
0
 10
2.98606
 20
3.14794
 30
0.0
 40
0
 41
0
  0
VERTEX
  8
0
 10
2.98606
 20
3.08535
 30
0.0
 40
0
 41
0
  0
VERTEX
  8
0
 10
4.80935
 20
2.42171
 30
0.0
 40
0
 41
0
  0
VERTEX
  8
0
 10
4.83339
 20
2.47835
 30
0.0
 40
0
 41
0
  0
VERTEX
  8
0
 10
4.85553
 20
2.53792
 30
0.0
 40
0
 41
0
  0
VERTEX
  8
0
 10
3.17958
 20
3.14794
 30
0.0
 40
0
 41
0
  0
VERTEX
  8
0
 10
2.98606
 20
3.14794
 30
0.0
 40
0
 41
0
  0
SEQEND
 8
0
  0
POLYLINE
  8
0
 62
     0
 66
     1
 10
0
 20
0
 30
0.0
 70
     1
 40
0
 41
0
  0
VERTEX
  8
0
 10
0.772949
 20
3.32124
 30
0.0
 40
0
 41
0
  0
VERTEX
  8
0
 10
0.771485
 20
3.25874
 30
0.0
 40
0
 41
0
  0
VERTEX
  8
0
 10
0.772949
 20
3.19624
 30
0.0
 40
0
 41
0
  0
VERTEX
  8
0
 10
2.7646
 20
3.19624
 30
0.0
 40
0
 41
0
  0
VERTEX
  8
0
 10
2.7646
 20
3.32124
 30
0.0
 40
0
 41
0
  0
VERTEX
  8
0
 10
0.772949
 20
3.32124
 30
0.0
 40
0
 41
0
  0
SEQEND
 8
0
  0
POLYLINE
  8
0
 62
     0
 66
     1
 10
0
 20
0
 30
0.0
 70
     1
 40
0
 41
0
  0
VERTEX
  8
0
 10
0.794814
 20
3.57124
 30
0.0
 40
0
 41
0
  0
VERTEX
  8
0
 10
0.792806
 20
3.55946
 30
0.0
 40
0
 41
0
  0
VERTEX
  8
0
 10
0.781033
 20
3.4605
 30
0.0
 40
0
 41
0
  0
VERTEX
  8
0
 10
0.780003
 20
3.44624
 30
0.0
 40
0
 41
0
  0
VERTEX
  8
0
 10
2.7646
 20
3.44624
 30
0.0
 40
0
 41
0
  0
VERTEX
  8
0
 10
2.7646
 20
3.57124
 30
0.0
 40
0
 41
0
  0
VERTEX
  8
0
 10
0.794814
 20
3.57124
 30
0.0
 40
0
 41
0
  0
SEQEND
 8
0
  0
POLYLINE
  8
0
 62
     0
 66
     1
 10
0
 20
0
 30
0.0
 70
     1
 40
0
 41
0
  0
VERTEX
  8
0
 10
4.95156
 20
3.61535
 30
0.0
 40
0
 41
0
  0
VERTEX
  8
0
 10
4.27599
 20
3.36947
 30
0.0
 40
0
 41
0
  0
VERTEX
  8
0
 10
4.64144
 20
3.36947
 30
0.0
 40
0
 41
0
  0
VERTEX
  8
0
 10
4.96929
 20
3.48872
 30
0.0
 40
0
 41
0
  0
VERTEX
  8
0
 10
4.95947
 20
3.56868
 30
0.0
 40
0
 41
0
  0
VERTEX
  8
0
 10
4.95156
 20
3.61535
 30
0.0
 40
0
 41
0
  0
SEQEND
 8
0
  0
POLYLINE
  8
0
 62
     0
 66
     1
 10
0
 20
0
 30
0.0
 70
     1
 40
0
 41
0
  0
VERTEX
  8
0
 10
0.847982
 20
3.82124
 30
0.0
 40
0
 41
0
  0
VERTEX
  8
0
 10
0.829861
 20
3.75293
 30
0.0
 40
0
 41
0
  0
VERTEX
  8
0
 10
0.8176
 20
3.69624
 30
0.0
 40
0
 41
0
  0
VERTEX
  8
0
 10
2.7646
 20
3.69624
 30
0.0
 40
0
 41
0
  0
VERTEX
  8
0
 10
2.7646
 20
3.82124
 30
0.0
 40
0
 41
0
  0
VERTEX
  8
0
 10
0.847982
 20
3.82124
 30
0.0
 40
0
 41
0
  0
SEQEND
 8
0
  0
POLYLINE
  8
0
 62
     0
 66
     1
 10
0
 20
0
 30
0.0
 70
     1
 40
0
 41
0
  0
VERTEX
  8
0
 10
4.89501
 20
3.86079
 30
0.0
 40
0
 41
0
  0
VERTEX
  8
0
 10
3.54503
 20
3.36947
 30
0.0
 40
0
 41
0
  0
VERTEX
  8
0
 10
3.91049
 20
3.36947
 30
0.0
 40
0
 41
0
  0
VERTEX
  8
0
 10
4.92681
 20
3.73931
 30
0.0
 40
0
 41
0
  0
VERTEX
  8
0
 10
4.92182
 20
3.76199
 30
0.0
 40
0
 41
0
  0
VERTEX
  8
0
 10
4.89649
 20
3.85618
 30
0.0
 40
0
 41
0
  0
VERTEX
  8
0
 10
4.89501
 20
3.86079
 30
0.0
 40
0
 41
0
  0
SEQEND
 8
0
  0
POLYLINE
  8
0
 62
     0
 66
     1
 10
0
 20
0
 30
0.0
 70
     1
 40
0
 41
0
  0
VERTEX
  8
0
 10
0.934733
 20
4.07124
 30
0.0
 40
0
 41
0
  0
VERTEX
  8
0
 10
0.917426
 20
4.03017
 30
0.0
 40
0
 41
0
  0
VERTEX
  8
0
 10
0.886556
 20
3.94624
 30
0.0
 40
0
 41
0
  0
VERTEX
  8
0
 10
2.7646
 20
3.94624
 30
0.0
 40
0
 41
0
  0
VERTEX
  8
0
 10
2.7646
 20
4.07124
 30
0.0
 40
0
 41
0
  0
VERTEX
  8
0
 10
0.934733
 20
4.07124
 30
0.0
 40
0
 41
0
  0
SEQEND
 8
0
  0
POLYLINE
  8
0
 62
     0
 66
     1
 10
0
 20
0
 30
0.0
 70
     1
 40
0
 41
0
  0
VERTEX
  8
0
 10
4.80935
 20
4.09571
 30
0.0
 40
0
 41
0
  0
VERTEX
  8
0
 10
2.98606
 20
3.43201
 30
0.0
 40
0
 41
0
  0
VERTEX
  8
0
 10
2.98606
 20
3.36947
 30
0.0
 40
0
 41
0
  0
VERTEX
  8
0
 10
3.17958
 20
3.36947
 30
0.0
 40
0
 41
0
  0
VERTEX
  8
0
 10
4.85553
 20
3.97944
 30
0.0
 40
0
 41
0
  0
VERTEX
  8
0
 10
4.83339
 20
4.03906
 30
0.0
 40
0
 41
0
  0
VERTEX
  8
0
 10
4.80935
 20
4.09571
 30
0.0
 40
0
 41
0
  0
SEQEND
 8
0
  0
POLYLINE
  8
0
 62
     0
 66
     1
 10
0
 20
0
 30
0.0
 70
     1
 40
0
 41
0
  0
VERTEX
  8
0
 10
4.69581
 20
4.32036
 30
0.0
 40
0
 41
0
  0
VERTEX
  8
0
 10
2.98606
 20
3.69808
 30
0.0
 40
0
 41
0
  0
VERTEX
  8
0
 10
2.98606
 20
3.56506
 30
0.0
 40
0
 41
0
  0
VERTEX
  8
0
 10
4.75651
 20
4.20942
 30
0.0
 40
0
 41
0
  0
VERTEX
  8
0
 10
4.75444
 20
4.21376
 30
0.0
 40
0
 41
0
  0
VERTEX
  8
0
 10
4.70931
 20
4.29775
 30
0.0
 40
0
 41
0
  0
VERTEX
  8
0
 10
4.69581
 20
4.32036
 30
0.0
 40
0
 41
0
  0
SEQEND
 8
0
  0
POLYLINE
  8
0
 62
     0
 66
     1
 10
0
 20
0
 30
0.0
 70
     1
 40
0
 41
0
  0
VERTEX
  8
0
 10
1.05968
 20
4.32124
 30
0.0
 40
0
 41
0
  0
VERTEX
  8
0
 10
1.0408
 20
4.28939
 30
0.0
 40
0
 41
0
  0
VERTEX
  8
0
 10
0.995876
 20
4.20514
 30
0.0
 40
0
 41
0
  0
VERTEX
  8
0
 10
0.991644
 20
4.19624
 30
0.0
 40
0
 41
0
  0
VERTEX
  8
0
 10
2.7646
 20
4.19624
 30
0.0
 40
0
 41
0
  0
VERTEX
  8
0
 10
2.7646
 20
4.32124
 30
0.0
 40
0
 41
0
  0
VERTEX
  8
0
 10
1.05968
 20
4.32124
 30
0.0
 40
0
 41
0
  0
SEQEND
 8
0
  0
POLYLINE
  8
0
 62
     0
 66
     1
 10
0
 20
0
 30
0.0
 70
     1
 40
0
 41
0
  0
VERTEX
  8
0
 10
4.55317
 20
4.53444
 30
0.0
 40
0
 41
0
  0
VERTEX
  8
0
 10
2.98606
 20
3.96408
 30
0.0
 40
0
 41
0
  0
VERTEX
  8
0
 10
2.98606
 20
3.83111
 30
0.0
 40
0
 41
0
  0
VERTEX
  8
0
 10
4.62804
 20
4.42871
 30
0.0
 40
0
 41
0
  0
VERTEX
  8
0
 10
4.60818
 20
4.45876
 30
0.0
 40
0
 41
0
  0
VERTEX
  8
0
 10
4.55317
 20
4.53444
 30
0.0
 40
0
 41
0
  0
SEQEND
 8
0
  0
POLYLINE
  8
0
 62
     0
 66
     1
 10
0
 20
0
 30
0.0
 70
     1
 40
0
 41
0
  0
VERTEX
  8
0
 10
1.23166
 20
4.57124
 30
0.0
 40
0
 41
0
  0
VERTEX
  8
0
 10
1.19705
 20
4.52756
 30
0.0
 40
0
 41
0
  0
VERTEX
  8
0
 10
1.14149
 20
4.45063
 30
0.0
 40
0
 41
0
  0
VERTEX
  8
0
 10
1.13856
 20
4.44624
 30
0.0
 40
0
 41
0
  0
VERTEX
  8
0
 10
2.7646
 20
4.44624
 30
0.0
 40
0
 41
0
  0
VERTEX
  8
0
 10
2.7646
 20
4.57124
 30
0.0
 40
0
 41
0
  0
VERTEX
  8
0
 10
1.23166
 20
4.57124
 30
0.0
 40
0
 41
0
  0
SEQEND
 8
0
  0
POLYLINE
  8
0
 62
     0
 66
     1
 10
0
 20
0
 30
0.0
 70
     1
 40
0
 41
0
  0
VERTEX
  8
0
 10
4.37765
 20
4.73665
 30
0.0
 40
0
 41
0
  0
VERTEX
  8
0
 10
2.98606
 20
4.23014
 30
0.0
 40
0
 41
0
  0
VERTEX
  8
0
 10
2.98606
 20
4.09711
 30
0.0
 40
0
 41
0
  0
VERTEX
  8
0
 10
4.46935
 20
4.63699
 30
0.0
 40
0
 41
0
  0
VERTEX
  8
0
 10
4.4311
 20
4.68078
 30
0.0
 40
0
 41
0
  0
VERTEX
  8
0
 10
4.37765
 20
4.73665
 30
0.0
 40
0
 41
0
  0
SEQEND
 8
0
  0
POLYLINE
  8
0
 62
     0
 66
     1
 10
0
 20
0
 30
0.0
 70
     1
 40
0
 41
0
  0
VERTEX
  8
0
 10
1.46701
 20
4.82124
 30
0.0
 40
0
 41
0
  0
VERTEX
  8
0
 10
1.45144
 20
4.80751
 30
0.0
 40
0
 41
0
  0
VERTEX
  8
0
 10
1.38325
 20
4.74186
 30
0.0
 40
0
 41
0
  0
VERTEX
  8
0
 10
1.33984
 20
4.69624
 30
0.0
 40
0
 41
0
  0
VERTEX
  8
0
 10
2.7646
 20
4.69624
 30
0.0
 40
0
 41
0
  0
VERTEX
  8
0
 10
2.7646
 20
4.82124
 30
0.0
 40
0
 41
0
  0
VERTEX
  8
0
 10
1.46701
 20
4.82124
 30
0.0
 40
0
 41
0
  0
SEQEND
 8
0
  0
POLYLINE
  8
0
 62
     0
 66
     1
 10
0
 20
0
 30
0.0
 70
     1
 40
0
 41
0
  0
VERTEX
  8
0
 10
4.16521
 20
4.9254
 30
0.0
 40
0
 41
0
  0
VERTEX
  8
0
 10
2.98606
 20
4.49621
 30
0.0
 40
0
 41
0
  0
VERTEX
  8
0
 10
2.98606
 20
4.36317
 30
0.0
 40
0
 41
0
  0
VERTEX
  8
0
 10
4.27636
 20
4.83285
 30
0.0
 40
0
 41
0
  0
VERTEX
  8
0
 10
4.22613
 20
4.87679
 30
0.0
 40
0
 41
0
  0
VERTEX
  8
0
 10
4.16521
 20
4.9254
 30
0.0
 40
0
 41
0
  0
SEQEND
 8
0
  0
POLYLINE
  8
0
 62
     0
 66
     1
 10
0
 20
0
 30
0.0
 70
     1
 40
0
 41
0
  0
VERTEX
  8
0
 10
1.80746
 20
5.07124
 30
0.0
 40
0
 41
0
  0
VERTEX
  8
0
 10
1.75206
 20
5.03787
 30
0.0
 40
0
 41
0
  0
VERTEX
  8
0
 10
1.67296
 20
4.98529
 30
0.0
 40
0
 41
0
  0
VERTEX
  8
0
 10
1.61947
 20
4.94624
 30
0.0
 40
0
 41
0
  0
VERTEX
  8
0
 10
2.7646
 20
4.94624
 30
0.0
 40
0
 41
0
  0
VERTEX
  8
0
 10
2.7646
 20
5.07124
 30
0.0
 40
0
 41
0
  0
VERTEX
  8
0
 10
1.80746
 20
5.07124
 30
0.0
 40
0
 41
0
  0
SEQEND
 8
0
  0
POLYLINE
  8
0
 62
     0
 66
     1
 10
0
 20
0
 30
0.0
 70
     1
 40
0
 41
0
  0
VERTEX
  8
0
 10
3.90614
 20
5.09711
 30
0.0
 40
0
 41
0
  0
VERTEX
  8
0
 10
2.98606
 20
4.76226
 30
0.0
 40
0
 41
0
  0
VERTEX
  8
0
 10
2.98606
 20
4.62924
 30
0.0
 40
0
 41
0
  0
VERTEX
  8
0
 10
4.04204
 20
5.01357
 30
0.0
 40
0
 41
0
  0
VERTEX
  8
0
 10
3.99615
 20
5.04383
 30
0.0
 40
0
 41
0
  0
VERTEX
  8
0
 10
3.91444
 20
5.09272
 30
0.0
 40
0
 41
0
  0
VERTEX
  8
0
 10
3.90614
 20
5.09711
 30
0.0
 40
0
 41
0
  0
SEQEND
 8
0
  0
POLYLINE
  8
0
 62
     0
 66
     1
 10
0
 20
0
 30
0.0
 70
     1
 40
0
 41
0
  0
VERTEX
  8
0
 10
3.58051
 20
5.24463
 30
0.0
 40
0
 41
0
  0
VERTEX
  8
0
 10
2.98606
 20
5.02826
 30
0.0
 40
0
 41
0
  0
VERTEX
  8
0
 10
2.98606
 20
4.89529
 30
0.0
 40
0
 41
0
  0
VERTEX
  8
0
 10
3.75364
 20
5.17464
 30
0.0
 40
0
 41
0
  0
VERTEX
  8
0
 10
3.74408
 20
5.17919
 30
0.0
 40
0
 41
0
  0
VERTEX
  8
0
 10
3.65565
 20
5.21674
 30
0.0
 40
0
 41
0
  0
VERTEX
  8
0
 10
3.58051
 20
5.24463
 30
0.0
 40
0
 41
0
  0
SEQEND
 8
0
  0
POLYLINE
  8
0
 62
     0
 66
     1
 10
0
 20
0
 30
0.0
 70
     1
 40
0
 41
0
  0
VERTEX
  8
0
 10
2.45888
 20
5.32124
 30
0.0
 40
0
 41
0
  0
VERTEX
  8
0
 10
2.36849
 20
5.30111
 30
0.0
 40
0
 41
0
  0
VERTEX
  8
0
 10
2.22814
 20
5.26118
 30
0.0
 40
0
 41
0
  0
VERTEX
  8
0
 10
2.09196
 20
5.21192
 30
0.0
 40
0
 41
0
  0
VERTEX
  8
0
 10
2.05539
 20
5.19624
 30
0.0
 40
0
 41
0
  0
VERTEX
  8
0
 10
2.7646
 20
5.19624
 30
0.0
 40
0
 41
0
  0
VERTEX
  8
0
 10
2.7646
 20
5.32124
 30
0.0
 40
0
 41
0
  0
VERTEX
  8
0
 10
2.45888
 20
5.32124
 30
0.0
 40
0
 41
0
  0
SEQEND
 8
0
  0
POLYLINE
  8
0
 62
     0
 66
     1
 10
0
 20
0
 30
0.0
 70
     1
 40
0
 41
0
  0
VERTEX
  8
0
 10
3.13601
 20
5.3489
 30
0.0
 40
0
 41
0
  0
VERTEX
  8
0
 10
2.98606
 20
5.29432
 30
0.0
 40
0
 41
0
  0
VERTEX
  8
0
 10
2.98606
 20
5.16129
 30
0.0
 40
0
 41
0
  0
VERTEX
  8
0
 10
3.38021
 20
5.30474
 30
0.0
 40
0
 41
0
  0
VERTEX
  8
0
 10
3.37864
 20
5.30524
 30
0.0
 40
0
 41
0
  0
VERTEX
  8
0
 10
3.28276
 20
5.32622
 30
0.0
 40
0
 41
0
  0
VERTEX
  8
0
 10
3.18533
 20
5.34289
 30
0.0
 40
0
 41
0
  0
VERTEX
  8
0
 10
3.13601
 20
5.3489
 30
0.0
 40
0
 41
0
  0
SEQEND
 8
0
  0
POLYLINE
  8
0
 62
     0
 66
     1
 10
0
 20
0
 30
0.0
 70
     1
 40
0
 41
0
  0
VERTEX
  8
0
 10
2.87532
 20
5.84233
 30
0.0
 40
0
 41
0
  0
VERTEX
  8
0
 10
3.00831
 20
5.83897
 30
0.0
 40
0
 41
0
  0
VERTEX
  8
0
 10
3.13949
 20
5.829
 30
0.0
 40
0
 41
0
  0
VERTEX
  8
0
 10
3.26878
 20
5.81261
 30
0.0
 40
0
 41
0
  0
VERTEX
  8
0
 10
3.39606
 20
5.78982
 30
0.0
 40
0
 41
0
  0
VERTEX
  8
0
 10
3.52106
 20
5.76107
 30
0.0
 40
0
 41
0
  0
VERTEX
  8
0
 10
3.64361
 20
5.72618
 30
0.0
 40
0
 41
0
  0
VERTEX
  8
0
 10
3.76367
 20
5.68554
 30
0.0
 40
0
 41
0
  0
VERTEX
  8
0
 10
3.88103
 20
5.63932
 30
0.0
 40
0
 41
0
  0
VERTEX
  8
0
 10
3.99544
 20
5.58762
 30
0.0
 40
0
 41
0
  0
VERTEX
  8
0
 10
4.10688
 20
5.53049
 30
0.0
 40
0
 41
0
  0
VERTEX
  8
0
 10
4.21506
 20
5.46837
 30
0.0
 40
0
 41
0
  0
VERTEX
  8
0
 10
4.31988
 20
5.40115
 30
0.0
 40
0
 41
0
  0
VERTEX
  8
0
 10
4.42117
 20
5.32904
 30
0.0
 40
0
 41
0
  0
VERTEX
  8
0
 10
4.51878
 20
5.25239
 30
0.0
 40
0
 41
0
  0
VERTEX
  8
0
 10
4.61253
 20
5.17117
 30
0.0
 40
0
 41
0
  0
VERTEX
  8
0
 10
4.70225
 20
5.08561
 30
0.0
 40
0
 41
0
  0
VERTEX
  8
0
 10
4.78782
 20
4.99588
 30
0.0
 40
0
 41
0
  0
VERTEX
  8
0
 10
4.86903
 20
4.90213
 30
0.0
 40
0
 41
0
  0
VERTEX
  8
0
 10
4.94569
 20
4.80458
 30
0.0
 40
0
 41
0
  0
VERTEX
  8
0
 10
5.01774
 20
4.70329
 30
0.0
 40
0
 41
0
  0
VERTEX
  8
0
 10
5.08496
 20
4.59847
 30
0.0
 40
0
 41
0
  0
VERTEX
  8
0
 10
5.14714
 20
4.49024
 30
0.0
 40
0
 41
0
  0
VERTEX
  8
0
 10
5.20421
 20
4.37879
 30
0.0
 40
0
 41
0
  0
VERTEX
  8
0
 10
5.25597
 20
4.26438
 30
0.0
 40
0
 41
0
  0
VERTEX
  8
0
 10
5.30219
 20
4.14708
 30
0.0
 40
0
 41
0
  0
VERTEX
  8
0
 10
5.34283
 20
4.02696
 30
0.0
 40
0
 41
0
  0
VERTEX
  8
0
 10
5.37765
 20
3.90435
 30
0.0
 40
0
 41
0
  0
VERTEX
  8
0
 10
5.40653
 20
3.77935
 30
0.0
 40
0
 41
0
  0
VERTEX
  8
0
 10
5.42919
 20
3.65213
 30
0.0
 40
0
 41
0
  0
VERTEX
  8
0
 10
5.44564
 20
3.52285
 30
0.0
 40
0
 41
0
  0
VERTEX
  8
0
 10
5.45562
 20
3.39165
 30
0.0
 40
0
 41
0
  0
VERTEX
  8
0
 10
5.45899
 20
3.25874
 30
0.0
 40
0
 41
0
  0
VERTEX
  8
0
 10
5.45562
 20
3.12576
 30
0.0
 40
0
 41
0
  0
VERTEX
  8
0
 10
5.44564
 20
2.99451
 30
0.0
 40
0
 41
0
  0
VERTEX
  8
0
 10
5.42919
 20
2.86529
 30
0.0
 40
0
 41
0
  0
VERTEX
  8
0
 10
5.40653
 20
2.73801
 30
0.0
 40
0
 41
0
  0
VERTEX
  8
0
 10
5.37765
 20
2.61301
 30
0.0
 40
0
 41
0
  0
VERTEX
  8
0
 10
5.34283
 20
2.49044
 30
0.0
 40
0
 41
0
  0
VERTEX
  8
0
 10
5.30219
 20
2.37033
 30
0.0
 40
0
 41
0
  0
VERTEX
  8
0
 10
5.25597
 20
2.25304
 30
0.0
 40
0
 41
0
  0
VERTEX
  8
0
 10
5.20421
 20
2.13857
 30
0.0
 40
0
 41
0
  0
VERTEX
  8
0
 10
5.14714
 20
2.02713
 30
0.0
 40
0
 41
0
  0
VERTEX
  8
0
 10
5.08496
 20
1.91894
 30
0.0
 40
0
 41
0
  0
VERTEX
  8
0
 10
5.01774
 20
1.81413
 30
0.0
 40
0
 41
0
  0
VERTEX
  8
0
 10
4.94569
 20
1.71283
 30
0.0
 40
0
 41
0
  0
VERTEX
  8
0
 10
4.86903
 20
1.61529
 30
0.0
 40
0
 41
0
  0
VERTEX
  8
0
 10
4.78782
 20
1.52154
 30
0.0
 40
0
 41
0
  0
VERTEX
  8
0
 10
4.70225
 20
1.43181
 30
0.0
 40
0
 41
0
  0
VERTEX
  8
0
 10
4.61253
 20
1.34625
 30
0.0
 40
0
 41
0
  0
VERTEX
  8
0
 10
4.51878
 20
1.26497
 30
0.0
 40
0
 41
0
  0
VERTEX
  8
0
 10
4.42117
 20
1.18837
 30
0.0
 40
0
 41
0
  0
VERTEX
  8
0
 10
4.31988
 20
1.11627
 30
0.0
 40
0
 41
0
  0
VERTEX
  8
0
 10
4.21506
 20
1.04904
 30
0.0
 40
0
 41
0
  0
VERTEX
  8
0
 10
4.10688
 20
0.986925
 30
0.0
 40
0
 41
0
  0
VERTEX
  8
0
 10
3.99544
 20
0.929796
 30
0.0
 40
0
 41
0
  0
VERTEX
  8
0
 10
3.88103
 20
0.878093
 30
0.0
 40
0
 41
0
  0
VERTEX
  8
0
 10
3.76367
 20
0.831868
 30
0.0
 40
0
 41
0
  0
VERTEX
  8
0
 10
3.64361
 20
0.791233
 30
0.0
 40
0
 41
0
  0
VERTEX
  8
0
 10
3.52106
 20
0.756347
 30
0.0
 40
0
 41
0
  0
VERTEX
  8
0
 10
3.39606
 20
0.727539
 30
0.0
 40
0
 41
0
  0
VERTEX
  8
0
 10
3.26878
 20
0.704807
 30
0.0
 40
0
 41
0
  0
VERTEX
  8
0
 10
3.13949
 20
0.688368
 30
0.0
 40
0
 41
0
  0
VERTEX
  8
0
 10
3.00831
 20
0.67844
 30
0.0
 40
0
 41
0
  0
VERTEX
  8
0
 10
2.87532
 20
0.675022
 30
0.0
 40
0
 41
0
  0
VERTEX
  8
0
 10
2.74235
 20
0.67844
 30
0.0
 40
0
 41
0
  0
VERTEX
  8
0
 10
2.61117
 20
0.688368
 30
0.0
 40
0
 41
0
  0
VERTEX
  8
0
 10
2.48188
 20
0.704807
 30
0.0
 40
0
 41
0
  0
VERTEX
  8
0
 10
2.35465
 20
0.727539
 30
0.0
 40
0
 41
0
  0
VERTEX
  8
0
 10
2.22965
 20
0.756347
 30
0.0
 40
0
 41
0
  0
VERTEX
  8
0
 10
2.10704
 20
0.791233
 30
0.0
 40
0
 41
0
  0
VERTEX
  8
0
 10
1.98697
 20
0.831868
 30
0.0
 40
0
 41
0
  0
VERTEX
  8
0
 10
1.86963
 20
0.878093
 30
0.0
 40
0
 41
0
  0
VERTEX
  8
0
 10
1.75521
 20
0.929796
 30
0.0
 40
0
 41
0
  0
VERTEX
  8
0
 10
1.64382
 20
0.986925
 30
0.0
 40
0
 41
0
  0
VERTEX
  8
0
 10
1.53558
 20
1.04904
 30
0.0
 40
0
 41
0
  0
VERTEX
  8
0
 10
1.43078
 20
1.11627
 30
0.0
 40
0
 41
0
  0
VERTEX
  8
0
 10
1.32948
 20
1.18837
 30
0.0
 40
0
 41
0
  0
VERTEX
  8
0
 10
1.23188
 20
1.26497
 30
0.0
 40
0
 41
0
  0
VERTEX
  8
0
 10
1.13813
 20
1.34625
 30
0.0
 40
0
 41
0
  0
VERTEX
  8
0
 10
1.04839
 20
1.43181
 30
0.0
 40
0
 41
0
  0
VERTEX
  8
0
 10
0.962836
 20
1.52154
 30
0.0
 40
0
 41
0
  0
VERTEX
  8
0
 10
0.881674
 20
1.61529
 30
0.0
 40
0
 41
0
  0
VERTEX
  8
0
 10
0.804958
 20
1.71283
 30
0.0
 40
0
 41
0
  0
VERTEX
  8
0
 10
0.73291
 20
1.81413
 30
0.0
 40
0
 41
0
  0
VERTEX
  8
0
 10
0.66569
 20
1.91894
 30
0.0
 40
0
 41
0
  0
VERTEX
  8
0
 10
0.603515
 20
2.02713
 30
0.0
 40
0
 41
0
  0
VERTEX
  8
0
 10
0.546442
 20
2.13857
 30
0.0
 40
0
 41
0
  0
VERTEX
  8
0
 10
0.494683
 20
2.25304
 30
0.0
 40
0
 41
0
  0
VERTEX
  8
0
 10
0.44846
 20
2.37033
 30
0.0
 40
0
 41
0
  0
VERTEX
  8
0
 10
0.407824
 20
2.49044
 30
0.0
 40
0
 41
0
  0
VERTEX
  8
0
 10
0.372993
 20
2.61301
 30
0.0
 40
0
 41
0
  0
VERTEX
  8
0
 10
0.344183
 20
2.73801
 30
0.0
 40
0
 41
0
  0
VERTEX
  8
0
 10
0.321451
 20
2.86529
 30
0.0
 40
0
 41
0
  0
VERTEX
  8
0
 10
0.305012
 20
2.99451
 30
0.0
 40
0
 41
0
  0
VERTEX
  8
0
 10
0.295031
 20
3.12576
 30
0.0
 40
0
 41
0
  0
VERTEX
  8
0
 10
0.291667
 20
3.25874
 30
0.0
 40
0
 41
0
  0
VERTEX
  8
0
 10
0.295031
 20
3.39165
 30
0.0
 40
0
 41
0
  0
VERTEX
  8
0
 10
0.305012
 20
3.52285
 30
0.0
 40
0
 41
0
  0
VERTEX
  8
0
 10
0.321451
 20
3.65213
 30
0.0
 40
0
 41
0
  0
VERTEX
  8
0
 10
0.344183
 20
3.77935
 30
0.0
 40
0
 41
0
  0
VERTEX
  8
0
 10
0.372993
 20
3.90435
 30
0.0
 40
0
 41
0
  0
VERTEX
  8
0
 10
0.407824
 20
4.02696
 30
0.0
 40
0
 41
0
  0
VERTEX
  8
0
 10
0.44846
 20
4.14708
 30
0.0
 40
0
 41
0
  0
VERTEX
  8
0
 10
0.494683
 20
4.26438
 30
0.0
 40
0
 41
0
  0
VERTEX
  8
0
 10
0.546442
 20
4.37879
 30
0.0
 40
0
 41
0
  0
VERTEX
  8
0
 10
0.603515
 20
4.49024
 30
0.0
 40
0
 41
0
  0
VERTEX
  8
0
 10
0.66569
 20
4.59847
 30
0.0
 40
0
 41
0
  0
VERTEX
  8
0
 10
0.73291
 20
4.70329
 30
0.0
 40
0
 41
0
  0
VERTEX
  8
0
 10
0.804958
 20
4.80458
 30
0.0
 40
0
 41
0
  0
VERTEX
  8
0
 10
0.881674
 20
4.90213
 30
0.0
 40
0
 41
0
  0
VERTEX
  8
0
 10
0.962836
 20
4.99588
 30
0.0
 40
0
 41
0
  0
VERTEX
  8
0
 10
1.04839
 20
5.08561
 30
0.0
 40
0
 41
0
  0
VERTEX
  8
0
 10
1.13813
 20
5.17117
 30
0.0
 40
0
 41
0
  0
VERTEX
  8
0
 10
1.23188
 20
5.25239
 30
0.0
 40
0
 41
0
  0
VERTEX
  8
0
 10
1.32948
 20
5.32904
 30
0.0
 40
0
 41
0
  0
VERTEX
  8
0
 10
1.43078
 20
5.40115
 30
0.0
 40
0
 41
0
  0
VERTEX
  8
0
 10
1.53558
 20
5.46837
 30
0.0
 40
0
 41
0
  0
VERTEX
  8
0
 10
1.64382
 20
5.53049
 30
0.0
 40
0
 41
0
  0
VERTEX
  8
0
 10
1.75521
 20
5.58762
 30
0.0
 40
0
 41
0
  0
VERTEX
  8
0
 10
1.86963
 20
5.63932
 30
0.0
 40
0
 41
0
  0
VERTEX
  8
0
 10
1.98697
 20
5.68554
 30
0.0
 40
0
 41
0
  0
VERTEX
  8
0
 10
2.10704
 20
5.72618
 30
0.0
 40
0
 41
0
  0
VERTEX
  8
0
 10
2.22965
 20
5.76107
 30
0.0
 40
0
 41
0
  0
VERTEX
  8
0
 10
2.35465
 20
5.78982
 30
0.0
 40
0
 41
0
  0
VERTEX
  8
0
 10
2.48188
 20
5.81261
 30
0.0
 40
0
 41
0
  0
VERTEX
  8
0
 10
2.61117
 20
5.829
 30
0.0
 40
0
 41
0
  0
VERTEX
  8
0
 10
2.74235
 20
5.83897
 30
0.0
 40
0
 41
0
  0
VERTEX
  8
0
 10
2.87532
 20
5.84233
 30
0.0
 40
0
 41
0
  0
SEQEND
 8
0
  0
ENDSEC
  0
EOF
